<svg width="16" height="20" viewBox="0 0 16 20" fill="none" xmlns="http://www.w3.org/2000/svg">
<path d="M14.9999 10.0101C15.5467 10.0883 15.9265 10.5949 15.8483 11.1416C15.3402 14.6937 12.5008 17.4929 8.9292 17.9381V19C8.9292 19.5523 8.4815 20 7.9292 20C7.3769 20 6.9292 19.5523 6.9292 19V17.9381C3.35764 17.4928 0.518283 14.6936 0.0102027 11.1416C-0.0679973 10.5949 0.311813 10.0883 0.858533 10.0101C1.40525 9.9319 1.91185 10.3117 1.99005 10.8584C2.40583 13.7652 4.90741 16 7.9292 16C10.9511 16 13.4526 13.7652 13.8684 10.8584C13.9466 10.3117 14.4532 9.9319 14.9999 10.0101ZM7.9292 0C10.6906 0 12.9292 2.23858 12.9292 5V10C12.9292 12.7614 10.6906 15 7.9292 15C5.16778 15 2.9292 12.7614 2.9292 10V5C2.9292 2.23858 5.16778 0 7.9292 0Z" fill="#FF383C"/>
</svg>
