<svg width="18" height="18" viewBox="0 0 18 18" fill="none" xmlns="http://www.w3.org/2000/svg">
<path d="M18 5V16C18 17.1046 17.1046 18 16 18H2C0.89543 18 0 17.1046 0 16V5H18ZM5.5 12H4.5C3.94772 12 3.5 12.4477 3.5 13C3.5 13.5128 3.88604 13.9355 4.38338 13.9933L4.5 14H5.5C6.05228 14 6.5 13.5523 6.5 13C6.5 12.4872 6.11396 12.0645 5.61662 12.0067L5.5 12ZM9.5 12H8.5C7.9477 12 7.5 12.4477 7.5 13C7.5 13.5523 7.9477 14 8.5 14H9.5C10.0523 14 10.5 13.5523 10.5 13C10.5 12.4477 10.0523 12 9.5 12ZM5.5 8H4.5C3.94772 8 3.5 8.4477 3.5 9C3.5 9.5523 3.94772 10 4.5 10H5.5C6.05228 10 6.5 9.5523 6.5 9C6.5 8.4477 6.05228 8 5.5 8ZM9.5 8H8.5C7.9477 8 7.5 8.4477 7.5 9C7.5 9.51285 7.88603 9.93551 8.38338 9.99327L8.5 10H9.5C10.0523 10 10.5 9.5523 10.5 9C10.5 8.48715 10.114 8.06449 9.61662 8.00673L9.5 8ZM13.5 8H12.5C11.9477 8 11.5 8.4477 11.5 9C11.5 9.5523 11.9477 10 12.5 10H13.5C14.0523 10 14.5 9.5523 14.5 9C14.5 8.4477 14.0523 8 13.5 8ZM16 0C17.1046 0 18 0.89543 18 2V3H0V2C0 0.89543 0.89543 0 2 0H16Z" fill="#F9F8F6"/>
</svg>
